<svg width="189" height="23" viewBox="0 0 189 23" fill="none" xmlns="http://www.w3.org/2000/svg">
<path d="M7.97656 23H5.00781V3.46875H0.164062V0.617188H12.5859V3.46875H7.97656V23ZM32.5859 23H28.6797L23.2109 13H21.9609L22 23H18.9922V0.617188H30.5938V13H27.1562L32.5859 23ZM27.4688 10.1875V3.39062H21.9609V10.1875H27.4688ZM40.75 19.9531H47.0391V3.42969H40.75V19.9531ZM37.7812 23V0.617188H50.1641V23H37.7812ZM59.4219 0.578125L65.8281 13V0.617188H68.9531V23H66.6094L59.5391 9.01562V23H56.5703V0.617188L59.4219 0.578125ZM77 3.46875H74.1484V0.617188H82.625V3.46875H79.9688V20.1094H82.8203V23H74.3828V20.1094H77V3.46875ZM97.4688 3.50781H91.1406V20.1875H100.086V23H88.0156V0.617188H100.398V6.98438H97.4688V3.50781ZM115.398 14.9922H104.617V12.2188H115.398V14.9922ZM129.031 3.50781H122.703V20.1875H131.648V23H119.578V0.617188H131.961V6.98438H129.031V3.50781ZM141.336 3.39062V10.1875H147.625V3.39062H141.336ZM150.75 23H147.625V13H141.336V23H138.367V0.617188H150.75V23ZM170.75 23H166.844L161.375 13H160.125L160.164 23H157.156V0.617188H168.758V13H165.32L170.75 23ZM165.633 10.1875V3.39062H160.125V10.1875H165.633ZM183.719 23H180.75V3.46875H175.906V0.617188H188.328V3.46875H183.719V23Z" fill="#5F6BD0"/>
</svg>
