<svg width="204" height="28" viewBox="0 0 204 28" fill="none" xmlns="http://www.w3.org/2000/svg">
<path d="M7.97656 23H5.00781V3.46875H0.164062V0.617188H12.5859V3.46875H7.97656V23ZM32.5859 23H28.6797L23.2109 13H21.9609L22 23H18.9922V0.617188H30.5938V13H27.1562L32.5859 23ZM27.4688 10.1875V3.39062H21.9609V10.1875H27.4688ZM40.75 19.9531H47.0391V3.42969H40.75V19.9531ZM37.7812 23V0.617188H50.1641V23H37.7812ZM59.4219 0.578125L65.8281 13V0.617188H68.9531V23H66.6094L59.5391 9.01562V23H56.5703V0.617188L59.4219 0.578125ZM77 3.46875H74.1484V0.617188H82.625V3.46875H79.9688V20.1094H82.8203V23H74.3828V20.1094H77V3.46875ZM97.4688 3.50781H91.1406V20.1875H100.086V23H88.0156V0.617188H100.398V6.98438H97.4688V3.50781ZM121.805 27.4141H104.617V24.6016H121.805V27.4141ZM138.367 23H135.164V3.39062H128.953V23H125.984V0.617188H147.586V23H144.461V3.39062H138.367V23ZM156.922 3.39062V10.1875H163.211V3.39062H156.922ZM166.336 23H163.211V13H156.922V23H153.953V0.617188H166.336V23ZM175.711 19.9531H185.125V23H172.742V0.617188L175.711 0.578125V19.9531ZM194.5 19.9531H203.914V23H191.531V0.617188L194.5 0.578125V19.9531Z" fill="#629A72"/>
</svg>
